<svg width="1918" height="135" fill="none" xmlns="http://www.w3.org/2000/svg"><path d="M44.589 26.062L0 0h1918l-13 43.875-23.94-9.474-15.88-20.328-26.53 20.328-18.47-8.34-28.72 20.329-26.68-11.989-34.2 11.989-42.41-11.989L1619.77 81l-39.68-10.633-32.15 18.243-28.73-18.243-29.41 28.07-36.94-52.047-25.99 23.977-35.7-23.977-22.44-11.989-15.29 35.966-37.38-11.989-23.94 30.232-34.2-18.243-37.62 32.316-86.38-56.293-92.6 74.537-109.681-18.244-28.045-14.073L850.615 135l-55.096-76.622-47.882 44.305-69.889 18.244-30.662-32.317-83.21 32.317-26.068-32.317h-45.274v14.073h-45.275l-47.333 18.244-37.043-32.317h-34.299V70.367L307.319 88.61l-18.521-18.243L259.3 46.39l-31.555 23.977-39.786-23.977-21.266 11.988-15.777-11.988-18.522 23.977L92.607 46.39H76.83L58.308 26.062h-13.72z" fill="url(#paint0_linear)"/><path d="M44.589 26.062L0 0h1918l-13 43.875-23.94-9.474-15.88-20.328-26.53 20.328-18.47-8.34-28.72 20.329-26.68-11.989-34.2 11.989-42.41-11.989L1619.77 81l-39.68-10.633-32.15 18.243-28.73-18.243-29.41 28.07-36.94-52.047-25.99 23.977-35.7-23.977-22.44-11.989-15.29 35.966-37.38-11.989-23.94 30.232-34.2-18.243-37.62 32.316-86.38-56.293-92.6 74.537-109.681-18.244-28.045-14.073L850.615 135l-55.096-76.622-47.882 44.305-69.889 18.244-30.662-32.317-83.21 32.317-26.068-32.317h-45.274v14.073h-45.275l-47.333 18.244-37.043-32.317h-34.299V70.367L307.319 88.61l-18.521-18.243L259.3 46.39l-31.555 23.977-39.786-23.977-21.266 11.988-15.777-11.988-18.522 23.977L92.607 46.39H76.83L58.308 26.062h-13.72z" fill="url(#paint1_linear)" fill-opacity=".39"/><defs><linearGradient id="paint0_linear" x1="959" y1="0" x2="959" y2="135" gradientUnits="userSpaceOnUse"><stop stop-color="#234959"/><stop offset="1" stop-color="#C8E7F4"/></linearGradient><linearGradient id="paint1_linear" x1="767.474" y1="0" x2="1918" y2="0" gradientUnits="userSpaceOnUse"><stop offset=".437" stop-color="#234959"/><stop offset="1" stop-color="#E6F2F7"/></linearGradient></defs></svg>