<svg width="1918" height="135" viewBox="0 0 1918 135" fill="none" xmlns="http://www.w3.org/2000/svg">
<path d="M44.5887 26.0618L0 0H1918L1905 43.875L1881.06 34.4015L1865.18 14.0734L1838.65 34.4015L1820.18 26.0618L1791.46 46.39L1764.78 34.4015L1730.58 46.39L1688.17 34.4015L1619.77 81L1580.09 70.3668L1547.94 88.61L1519.21 70.3668L1489.8 98.4375L1452.86 46.39L1426.87 70.3668L1391.17 46.39L1368.73 34.4015L1353.44 70.3668L1316.06 58.3784L1292.12 88.61L1257.92 70.3668L1220.3 102.683L1133.92 46.39L1041.32 120.927L931.639 102.683L903.594 88.61L850.615 135L795.519 58.3784L747.637 102.683L677.748 120.927L647.086 88.61L563.876 120.927L537.808 88.61H492.534V102.683H447.259L399.926 120.927L362.883 88.61H328.584V70.3668L307.319 88.61L288.798 70.3668L259.3 46.39L227.745 70.3668L187.959 46.39L166.693 58.3784L150.916 46.39L132.394 70.3668L92.6073 46.39H76.8298L58.3083 26.0618H44.5887Z" fill="url(#paint0_linear)"/>
<path d="M44.5887 26.0618L0 0H1918L1905 43.875L1881.06 34.4015L1865.18 14.0734L1838.65 34.4015L1820.18 26.0618L1791.46 46.39L1764.78 34.4015L1730.58 46.39L1688.17 34.4015L1619.77 81L1580.09 70.3668L1547.94 88.61L1519.21 70.3668L1489.8 98.4375L1452.86 46.39L1426.87 70.3668L1391.17 46.39L1368.73 34.4015L1353.44 70.3668L1316.06 58.3784L1292.12 88.61L1257.92 70.3668L1220.3 102.683L1133.92 46.39L1041.32 120.927L931.639 102.683L903.594 88.61L850.615 135L795.519 58.3784L747.637 102.683L677.748 120.927L647.086 88.61L563.876 120.927L537.808 88.61H492.534V102.683H447.259L399.926 120.927L362.883 88.61H328.584V70.3668L307.319 88.61L288.798 70.3668L259.3 46.39L227.745 70.3668L187.959 46.39L166.693 58.3784L150.916 46.39L132.394 70.3668L92.6073 46.39H76.8298L58.3083 26.0618H44.5887Z" fill="url(#paint1_linear)" fill-opacity="0.39"/>
<defs>
<linearGradient id="paint0_linear" x1="959" y1="0" x2="959" y2="135" gradientUnits="userSpaceOnUse">
<stop stop-color="#234959"/>
<stop offset="1" stop-color="#C8E7F4"/>
</linearGradient>
<linearGradient id="paint1_linear" x1="767.474" y1="0" x2="1918" y2="0" gradientUnits="userSpaceOnUse">
<stop offset="0.436874" stop-color="#234959"/>
<stop offset="1" stop-color="#E6F2F7"/>
</linearGradient>
</defs>
</svg>
